<svg xmlns="http://www.w3.org/2000/svg" width="720" height="500" viewBox="0 -20 720 512" stroke="#00979c">
    <g fill="none">
        <path d="M174 30C78.9 22.43-1 135 38 222c38 94.4 181 120 249 44.4 65.9-64.6 91.3-164 172-215 82-56 214-3.12 230 96.4 15.6 95.3-87.1 188-180 160-68.7-15.5-118-74.2-146-136-34.5-59-79.6-122-150-138-12.5-2.84-25.4-3.96-38.2-3.94z" stroke-width="59"/>
        <path d="m118 165h120" stroke-width="25"/>
        <path d="m486 165h100m-51-50v100" stroke-width="32"/>
    </g>
</svg>